<svg width="72" height="100" viewBox="0 0 72 100" fill="none" xmlns="http://www.w3.org/2000/svg">
<path fill-rule="evenodd" clip-rule="evenodd" d="M46.0937 5.4L35.6625 0L25.2312 5.4L13.6187 7.1625L8.35625 17.6625L0 25.9125L1.9125 37.5L0 49.0875L8.35625 57.3375L13.6187 67.8375L25.2312 69.6L35.6625 75L46.0937 69.6L57.7062 67.8375L62.9688 57.3375L71.325 49.0875L69.4125 37.5L71.325 25.9125L62.9688 17.6625L57.7062 7.1625L46.0937 5.4ZM53.5687 12.8562L44.1312 11.425L35.6625 7.0375L27.1937 11.425L17.7563 12.8562L13.4813 21.3875L6.69375 28.0875L8.25 37.5L6.6875 46.9125L13.4813 53.6125L17.7563 62.1437L27.1937 63.575L35.6625 67.9625L44.1375 63.575L53.5687 62.1437L57.8437 53.6125L64.6312 46.9125L63.0812 37.5L64.6312 28.0875L57.8437 21.3875L53.5687 12.8562Z" fill="white"/>
<path d="M10.6625 73.7125V100L35.6625 93.75L60.6625 100V73.7125L48.05 75.625L35.6625 82.0375L23.275 75.625L10.6625 73.7125Z" fill="white"/>
</svg>
