<svg width="100" height="88" viewBox="0 0 100 88" fill="none" xmlns="http://www.w3.org/2000/svg">
<path d="M25 56.25H12.5C9.04822 56.25 6.25 59.0482 6.25 62.5V81.25C6.25 84.7018 9.04822 87.5 12.5 87.5H25C28.4518 87.5 31.25 84.7018 31.25 81.25V62.5C31.25 59.0482 28.4518 56.25 25 56.25Z" fill="white"/>
<path d="M56.25 31.25H43.75C40.2982 31.25 37.5 34.0482 37.5 37.5V81.25C37.5 84.7018 40.2982 87.5 43.75 87.5H56.25C59.7018 87.5 62.5 84.7018 62.5 81.25V37.5C62.5 34.0482 59.7018 31.25 56.25 31.25Z" fill="white"/>
<path d="M87.5 0H75C71.5482 0 68.75 2.79822 68.75 6.25V81.25C68.75 84.7018 71.5482 87.5 75 87.5H87.5C90.9518 87.5 93.75 84.7018 93.75 81.25V6.25C93.75 2.79822 90.9518 0 87.5 0Z" fill="white"/>
<path fill-rule="evenodd" clip-rule="evenodd" d="M0 84.375C0 83.5462 0.32924 82.7513 0.915291 82.1653C1.50134 81.5792 2.2962 81.25 3.125 81.25H96.875C97.7038 81.25 98.4987 81.5792 99.0847 82.1653C99.6708 82.7513 100 83.5462 100 84.375C100 85.2038 99.6708 85.9987 99.0847 86.5847C98.4987 87.1708 97.7038 87.5 96.875 87.5H3.125C2.2962 87.5 1.50134 87.1708 0.915291 86.5847C0.32924 85.9987 0 85.2038 0 84.375Z" fill="white"/>
</svg>
