<svg width="100" height="88" viewBox="0 0 100 88" fill="none" xmlns="http://www.w3.org/2000/svg">
<path d="M66.5375 36.553C67.0017 36.1457 67.5997 35.8771 68.2469 35.7853C68.894 35.6935 69.5576 35.7831 70.1438 36.0415L100 57.75V82.5C100 83.9587 99.3415 85.3576 98.1694 86.3891C96.9973 87.4205 95.4076 88 93.75 88H6.25C4.5924 88 3.00268 87.4205 1.83058 86.3891C0.65848 85.3576 0 83.9587 0 82.5V71.5L22.7875 47.553C23.2983 47.1051 23.9695 46.8265 24.6871 46.7643C25.4048 46.7022 26.1248 46.8603 26.725 47.212L43.35 62.4635L66.5375 36.5585V36.553Z" fill="white"/>
<path fill-rule="evenodd" clip-rule="evenodd" d="M28.1125 27.5C32.2565 27.5 36.2308 26.0513 39.161 23.4727C42.0913 20.8941 43.7375 17.3967 43.7375 13.75C43.7375 10.1033 42.0913 6.60591 39.161 4.02728C36.2308 1.44866 32.2565 0 28.1125 0C23.9685 0 19.9942 1.44866 17.064 4.02728C14.1337 6.60591 12.4875 10.1033 12.4875 13.75C12.4875 17.3967 14.1337 20.8941 17.064 23.4727C19.9942 26.0513 23.9685 27.5 28.1125 27.5Z" fill="white"/>
</svg>
