<?xml version="1.0" encoding="UTF-8"?>
<!DOCTYPE svg PUBLIC "-//W3C//DTD SVG 1.1//EN" "http://www.w3.org/Graphics/SVG/1.1/DTD/svg11.dtd">
<!-- Creator: CorelDRAW 2021 (64-Bit Оценочная версия) -->
<svg xmlns="http://www.w3.org/2000/svg" xml:space="preserve" width="1440px" height="768px" version="1.1" style="shape-rendering:geometricPrecision; text-rendering:geometricPrecision; image-rendering:optimizeQuality; fill-rule:evenodd; clip-rule:evenodd"
viewBox="0 0 1440 768"
 xmlnsXlink="http://www.w3.org/1999/xlink"
 xmlnsXodm="http://www.corel.com/coreldraw/odm/2003">
 <defs>
  <style type="text/css">
    .fil3 {fill:#FEFEFE}
    .fil2 {fill:#13889C}
    .fil4 {fill:#14516B}
    .fil1 {fill:#1C9AB3}
    .fil0 {fill:#AADAE8}
  </style>
 </defs>
 <g id="Слой_x0020_1">
  <metadata id="CorelCorpID_0Corel-Layer"/>
  <path class="fil0" d="M0 583.08l321.22 64.19c0,0 198.36,41 325.34,46 126.98,5 313.11,-17 352.13,-24 39.03,-7 441.31,-85.6 441.31,-85.6l0 -583.46 -1440 0 0 582.87z"/>
  <path class="fil1" d="M440.31 367l52.03 124 99.07 138 117.88 64c0,0 243.37,-6 282.4,-26l127.09 -162 -122.09 53 157.11 -129 1 -59 -96.06 -53c0,0 -8.01,-3 -21.02,-5 0,0 -35.02,-1 -65.04,2 0,0 13.01,-38 -55.04,-27l5 -4 -6 0 -93.07 -72 -24.01 -1 -27.02 5 -18.01 12 -92.07 75 -2 10 15.01 15c0,0 -64.04,-12 -124.09,-14 0,0 -30.02,0 -40.02,8 10,-8 -71.05,46 -71.05,46z"/>
  <path class="fil2" d="M0 539.94l322.22 108.18c0,0 202.87,32.54 228.99,35.76l-0.01 0 0.3 0.04 0.08 0c6.84,0.84 107.14,13 145.85,10.15 34.99,-2.58 17.25,-1.45 12.18,-1.12l-23.46 -14.02 -0.05 -0.03 0 0 -91.69 -54.78 -97.06 -137 -60.05 -130 -19.01 20 -17.01 -72 -18.01 -1 -12.01 -52 -21.02 72 -9 -13 -22.02 68 -26.02 -20 -85.06 105 -51.03 -37 -42.03 54 -91.06 -33 -24.02 23.89 0 67.93z"/>
  <polygon class="fil3" points="0,473.07 24.02,449 117.08,482 157.11,428 208.14,465 293.2,362 318.22,380 343.24,313 349.24,326 370.26,259 346.24,302 340.24,295 309.21,361 289.2,347 204.14,435 155.11,422 107.07,465 28.02,411 0,439.66 "/>
  <path class="fil3" d="M988.69 670l18.01 -3 305.21 -301 -80.05 44 -9.01 0 -168.12 -112 -60.04 3c0,0 -14.01,-15 -28.02,-18 -14.01,-3 -45.03,-3 -50.03,6 0,0 38.02,-3 42.03,1l11 7 1 19c0,0 73.05,-7 90.07,5l94.06 52 -2 59 -157.11 127 121.09 -51 -128.09 162z"/>
  <polygon class="fil2" points="1007.7,666 1314.91,366 1440,519.64 1440,584.15 "/>
  <path class="fil3" d="M414.39 373l3 4 18.01 -20 5 10 72.05 -47c0,0 18.02,-6 39.03,-6 21.02,0 80.06,6 124.09,13l-14.01 -15 0 -9 86.06 -72 25.02 -16 31.02 -4 21.01 0c0,0 -25.02,-24 -51.03,-14l-136.1 109 -9 4 -110.08 -10c0,0 -6.01,-1 -12.01,4 -6,5 -41.03,25 -68.05,46 -27.01,21 -24.01,23 -24.01,23z"/>
  <polygon class="fil3" points="695.58,289 726.6,285 739.61,247 "/>
  <polygon class="fil3" points="453.41,396 458.42,408 594.51,409 609.52,377 605.52,372 "/>
  <polygon class="fil2" points="594.51,409 708.59,587 792.65,592 716.6,486 690.58,493 608.56,375.8 "/>
  <polygon class="fil2" points="634.54,332 723.6,456 788.65,455 724.6,364 696.58,375 664.56,333 "/>
  <polygon class="fil2" points="695.58,289 739.61,339 765.63,290 745.62,277 740.61,248 726.6,285 "/>
  <polygon class="fil2" points="778.64,560 830.68,554 828.67,533 850.69,508 851.69,500 860.7,480 885.71,488 902.73,528 938.75,530 904.73,533 909.73,546 837.68,590 831.68,561 "/>
  <polygon class="fil2" points="905.73,482 966.77,471 1030.82,505 "/>
  <polygon class="fil2" points="827.67,651 941.75,639 997.79,654 "/>
  <polygon class="fil4" points="1,582 21.01,499 38.03,590 "/>
  <polygon class="fil4" points="64.05,595 85.06,531 94.07,602 "/>
  <polygon class="fil4" points="1279.89,615 1288.9,569 1305.91,610 "/>
  <polygon class="fil4" points="1347.94,602 1374.96,444 1415.98,588 "/>
  <polygon class="fil4" points="1423.99,586 1440,521.18 1440,582.88 "/>
 </g>
</svg>
